<svg width="116" height="87" viewBox="0 0 116 87" fill="none" xmlns="http://www.w3.org/2000/svg">
<g clip-path="url(#clip0_6511_735)">
<g clip-path="url(#clip1_6511_735)">
<g clip-path="url(#clip2_6511_735)">
<g clip-path="url(#clip3_6511_735)">
<mask id="mask0_6511_735" style="mask-type:luminance" maskUnits="userSpaceOnUse" x="18" y="0" width="80" height="80">
<path d="M98 0H18V80H98V0Z" fill="white"/>
</mask>
<g mask="url(#mask0_6511_735)">
<path d="M70.5 50.5L68.5 55L70 58V59.5L70.5 61.5C71.1667 61.8333 72.6 62.5 73 62.5C73.4 62.5 74.5 62.8333 75 63C75 63.5 74.9 64.6 74.5 65C74.1 65.4 73.3333 65.5 73 65.5C72.6667 66.1667 72 67.6 72 68C72 68.5 71.5 70 71.5 70.5C71.5 70.9 70.5 72.6667 70 73.5L70.5 78C72 78.1667 75.1 78.5 75.5 78.5H83.5C86.1667 77.6667 91.5 75.9 91.5 75.5C91.5 75.1 93.5 74.3333 94.5 74L96.5 70L94.5 65.5L89 54.5L88 54C87.3333 54.1667 85.9 54.4 85.5 54C85 53.5 83.5 53.5 83.5 53C83.5 52.5 82.5 52.5 82.5 52C82.5 51.5 82 51 82 50.5V48.5C82 48 82.5 47.5 82.5 47C82.5 46.6 83.5 46.1667 84 46V44.5C83.6667 43.8333 83 42.4 83 42C83 41.5 81.5 40.5 81 40.5C80.5 40.5 79 40 78.5 40C78.1 40 76.6667 40.6667 76 41L74 44.5L70.5 50.5Z" fill="#FDC040"/>
<path d="M50.5 30L42 29.5L41.5 31.5V36L42 43C42.5 43.1667 43.7 43.6 44.5 44C45.5 44.5 48.5 44 49 44C49.5 44 56 43.5 56.5 43C57 42.5 57.5 41.5 58 41C58.5 40.5 58.5 39 58.5 38.5V34.5C58.5 33.5 58 32 58 31.5C58 31.1 57 30.3333 56.5 30H50.5Z" fill="#FDC040"/>
<path d="M97.4851 68.1252L89.685 52.6062C89.5203 52.2786 89.2117 52.0469 88.8512 51.9801C88.4906 51.9134 88.1195 52.0194 87.8486 52.2664C87.2979 52.7684 86.5809 53.045 85.8303 53.045C84.1717 53.045 82.8224 51.695 82.8224 50.0356C82.8224 48.6018 83.8421 47.3606 85.2473 47.0838C85.6067 47.0131 85.9123 46.7784 86.0734 46.4495C86.2346 46.1205 86.2325 45.7352 86.0681 45.4079L84.104 41.498C83.1614 39.6239 81.2726 38.4597 79.1749 38.4595C79.1747 38.4595 79.1751 38.4595 79.1749 38.4595C78.9721 38.4595 78.7718 38.4736 78.5735 38.495C78.5221 35.6001 78.4475 32.7015 78.3486 29.8575C78.2494 26.9842 77.4046 24.1778 75.9052 21.7415C75.5659 21.1902 74.8441 21.0184 74.293 21.3578C73.7419 21.697 73.57 22.4189 73.9092 22.97C75.1959 25.0608 75.9211 27.4705 76.0063 29.9388C76.1136 33.019 76.1924 36.1637 76.2434 39.298C75.4067 39.8222 74.7109 40.5725 74.2459 41.4967L68.5126 52.9045C66.293 49.4551 63.1853 46.7793 59.5598 46.7793C53.236 46.7793 48.487 54.9185 47.2811 61.1071H47.2053C46.5869 57.9336 45.0367 54.2481 42.8202 51.4092C42.8043 49.1762 42.804 46.933 42.8176 44.6852C44.0284 44.7093 45.242 44.7251 46.4589 44.7251C49.4995 44.7251 52.5525 44.6502 55.5813 44.5011C57.6346 44.4001 59.3011 42.845 59.5439 40.8036C59.8717 38.047 59.8717 35.2515 59.5439 32.4949C59.3011 30.4535 57.6348 28.8985 55.582 28.7975C51.4836 28.596 47.3333 28.5317 43.2248 28.6033C43.8357 23.7922 46.8169 19.6548 51.2508 17.561H67.8707C69.0362 18.1113 70.1238 18.8182 71.105 19.669C71.3267 19.8613 71.6 19.9555 71.8721 19.9555C72.2002 19.9555 72.5264 19.8187 72.7581 19.5515C73.182 19.0626 73.1294 18.3224 72.6404 17.8983C72.1125 17.4405 71.5565 17.02 70.9787 16.6344C71.9921 15.8386 72.6451 14.6035 72.6451 13.218C72.6451 11.2292 71.301 9.54964 69.474 9.03682V4.89271C69.4735 2.19487 67.2788 0 64.5808 0H54.5399C51.8421 0 49.6472 2.19487 49.6472 4.89271V9.03714C47.82 9.54996 46.4759 11.2295 46.4759 13.2183C46.4759 14.6036 47.1286 15.8385 48.1417 16.6343C46.3725 17.8143 44.8376 19.3285 43.6287 21.1049C41.8685 23.6914 40.8808 26.7181 40.7726 29.8575C40.5527 36.202 40.4494 42.6153 40.4638 48.9629C38.8235 47.6193 36.9563 46.7795 34.9264 46.7795C32.077 46.7795 29.1937 48.524 26.8076 51.6917C26.4181 52.2086 26.5215 52.9434 27.0385 53.3328C27.5556 53.7223 28.2902 53.6189 28.6796 53.1019C29.799 51.6159 32.099 49.1232 34.9266 49.1232C37.1289 49.1232 39.4425 50.6656 41.4415 53.4659C43.0243 55.6835 44.2384 58.4577 44.8137 61.1073H25.0382C25.3376 59.7323 25.8137 58.3074 26.4412 56.9204C26.7079 56.3307 26.4462 55.6364 25.8565 55.3696C25.267 55.1028 24.5726 55.3646 24.3057 55.9543C23.5362 57.6554 22.9733 59.4166 22.6493 61.1071H21.0402C19.3638 61.1071 18 62.4709 18 64.1473C18 65.8236 19.3639 67.1875 21.0402 67.1875H21.6161C21.8107 68.9828 22.1386 70.7721 22.4594 72.5118C22.688 73.7515 22.9244 75.0335 23.1041 76.2829C23.3476 77.97 24.6963 79.2826 26.3848 79.4753C29.4573 79.8245 32.1904 79.9992 34.9247 79.9992C37.6549 79.9992 40.3862 79.8252 43.4563 79.4769C44.0167 79.4131 44.5381 79.225 44.9961 78.9436C46.192 79.6366 47.5395 79.9997 48.9425 79.9997H59.5614L59.5584 79.9989C62.2934 79.9991 65.028 79.8245 68.1021 79.4752C68.9162 79.3823 69.6498 79.0272 70.2203 78.497C73.1197 79.498 76.1356 79.99 79.1382 79.99C85.2451 79.99 91.2941 77.9614 96.1813 74.0749C97.9585 72.6629 98.507 70.1607 97.4851 68.1252ZM51.991 4.89271C51.991 3.48723 53.1344 2.34378 54.5399 2.34378H64.5808C65.9863 2.34378 67.1297 3.48723 67.1297 4.89271V8.8751H51.991V4.89271ZM50.8191 11.2189H68.3016C69.4042 11.2189 70.3009 12.1158 70.3009 13.2181C70.3009 14.3206 69.404 15.2175 68.3016 15.2175H50.8191C49.7166 15.2175 48.8197 14.3206 48.8197 13.2181C48.8197 12.1158 49.7167 11.2189 50.8191 11.2189ZM55.4665 31.1388C56.3731 31.1833 57.109 31.8702 57.2162 32.7719C57.5221 35.3449 57.5221 37.9542 57.2162 40.527C57.109 41.4288 56.3729 42.1158 55.4659 42.1603C51.2697 42.3669 47.0276 42.4272 42.8368 42.3436C42.877 38.5428 42.959 34.7362 43.0827 30.9505C47.199 30.8749 51.3589 30.9369 55.4665 31.1388ZM76.3394 42.5499C76.8897 41.4563 77.9493 40.8034 79.1741 40.8034C80.3991 40.8036 81.4594 41.4569 82.0096 42.5508L83.3796 45.2777C81.6377 46.1779 80.4787 47.9976 80.4787 50.0357C80.4787 52.9875 82.8793 55.3889 85.8303 55.3889C86.6567 55.3889 87.4608 55.2002 88.1866 54.8438L94.7432 67.8886C94.7362 67.8942 94.7299 67.9005 94.7227 67.9061C91.4264 70.5279 87.4848 72.2815 83.3242 72.9774C79.5735 73.6048 75.7039 73.3654 72.0681 72.2929C72.3759 70.6218 72.6842 68.9077 72.8703 67.1875H73.4469C75.1233 67.1875 76.487 65.8237 76.487 64.1473C76.487 62.4709 75.1233 61.1071 73.4469 61.1071H71.8381C71.482 59.2798 70.8171 57.2827 69.8937 55.3749L76.3394 42.5499ZM53.0443 53.4663C55.0434 50.6656 57.3573 49.1232 59.5595 49.1232C61.7623 49.1232 64.0763 50.6656 66.0752 53.4663C67.6579 55.6836 68.8718 58.4579 69.447 61.1074H49.672C50.2472 58.4582 51.4613 55.6839 53.0443 53.4663ZM20.3438 64.1476C20.3438 63.7636 20.6563 63.4512 21.0402 63.4512H73.4469C73.8309 63.4512 74.1433 63.7636 74.1433 64.1476C74.1433 64.5315 73.8309 64.844 73.4469 64.844H21.0402C20.6561 64.8439 20.3438 64.5315 20.3438 64.1476ZM46.5308 77.1062C46.6325 76.8447 46.7081 76.5698 46.7494 76.2828C46.8589 75.5145 46.9889 74.599 47.1248 73.6221C47.1342 73.5559 47.1392 73.5193 47.2431 73.5193C47.3472 73.5193 47.3522 73.5559 47.3614 73.6212C47.4975 74.5992 47.6275 75.5146 47.7372 76.2842C47.8058 76.7606 47.9655 77.2056 48.1941 77.6056C47.6141 77.5279 47.0548 77.36 46.5308 77.1062ZM67.8368 77.1468C61.8859 77.8231 57.2479 77.8236 51.2952 77.1484C50.6572 77.0757 50.148 76.5832 50.0572 75.952C49.948 75.1859 49.8185 74.2732 49.6825 73.297C49.5075 72.0479 48.5042 71.1755 47.243 71.1757C45.9817 71.1757 44.9786 72.048 44.8035 73.298C44.6678 74.2732 44.5382 75.186 44.4292 75.9507C44.3382 76.5832 43.829 77.0757 43.1915 77.1484C37.2377 77.8236 32.5997 77.8231 26.6499 77.1468C26.0195 77.075 25.5152 76.5821 25.4238 75.9489C25.2376 74.6542 24.997 73.349 24.7641 72.0869C24.4668 70.4747 24.1635 68.8192 23.9744 67.1877H70.5118C70.3224 68.8236 70.0184 70.4836 69.7204 72.1002C69.4885 73.3584 69.2487 74.6592 69.0624 75.9498C68.9712 76.5828 68.467 77.075 67.8368 77.1468ZM94.7227 72.2405C88.1609 77.4586 79.3082 79.0098 71.3595 76.4061C71.3667 76.3654 71.3764 76.3257 71.3823 76.2848C71.4621 75.7318 71.5539 75.1724 71.6501 74.6132C74.0986 75.3104 76.64 75.664 79.186 75.664C80.6991 75.664 82.2138 75.5395 83.7109 75.2892C88.0406 74.5649 92.1521 72.7918 95.649 70.1504C95.694 70.9393 95.3662 71.7293 94.7227 72.2405Z" fill="#3BB77E"/>
<path d="M80.2673 67.7179C81.057 68.8664 82.2467 69.6386 83.6171 69.8924C83.9378 69.9518 84.2592 69.9811 84.5782 69.9811C85.6235 69.9811 86.6437 69.6664 87.5237 69.0614C88.6723 68.2718 89.4445 67.0821 89.6982 65.7116C89.9521 64.3411 89.6568 62.9538 88.8673 61.8052C88.0776 60.6566 86.8879 59.8844 85.5174 59.6307C84.1465 59.3769 82.7596 59.6721 81.611 60.4616C80.4624 61.2513 79.6903 62.441 79.4365 63.8114C79.1824 65.1821 79.4776 66.5694 80.2673 67.7179ZM81.7409 64.2382C81.8807 63.4832 82.3062 62.8278 82.9388 62.3928C83.4235 62.0596 83.9854 61.8863 84.5612 61.8863C84.737 61.8863 84.9142 61.9025 85.0906 61.9352C85.8456 62.075 86.5009 62.5003 86.936 63.1332C87.371 63.7658 87.5335 64.53 87.3938 65.285C87.254 66.04 86.8285 66.6953 86.1959 67.1303C85.5631 67.5653 84.7987 67.7278 84.0442 67.5882C83.2892 67.4483 82.6338 67.023 82.1987 66.3902C81.7637 65.7574 81.601 64.9932 81.7409 64.2382Z" fill="#3BB77E"/>
<path d="M75.3464 60.6886C75.5801 60.7319 75.8145 60.7533 76.0472 60.7533C76.8092 60.7533 77.5529 60.5237 78.1945 60.0828C79.0318 59.507 79.5948 58.6397 79.7798 57.6406C79.965 56.6414 79.7497 55.63 79.174 54.7925C78.5984 53.955 77.7309 53.392 76.7318 53.207C74.6692 52.8253 72.6803 54.1925 72.2984 56.2551C71.9162 58.3178 73.2837 60.3067 75.3464 60.6886ZM74.6028 56.6819C74.7494 55.89 75.5131 55.3647 76.305 55.5117C76.6886 55.5828 77.0215 55.7989 77.2426 56.1205C77.4637 56.442 77.5462 56.8303 77.4753 57.2139C77.4042 57.5975 77.1881 57.9306 76.8665 58.1515C76.5451 58.3726 76.1572 58.4553 75.7731 58.3842C74.9812 58.2373 74.4562 57.4737 74.6028 56.6819Z" fill="#3BB77E"/>
</g>
</g>
</g>
</g>
</g>
<defs>
<clipPath id="clip0_6511_735">
<rect width="116" height="87" fill="white"/>
</clipPath>
<clipPath id="clip1_6511_735">
<rect x="18" width="80" height="80" rx="10" fill="white"/>
</clipPath>
<clipPath id="clip2_6511_735">
<rect width="80" height="80" fill="white" transform="translate(18)"/>
</clipPath>
<clipPath id="clip3_6511_735">
<rect width="80" height="80" fill="white" transform="translate(18)"/>
</clipPath>
</defs>
</svg>
